<svg xmlns="http://www.w3.org/2000/svg" viewBox="0 0 226 226"><defs><style>.cls-1{fill:#fff;}</style></defs><g id="Layer_2" data-name="Layer 2"><g id="Layer_1-2" data-name="Layer 1"><g id="outline"><path class="cls-1" d="M113,14a99,99,0,1,1-99,99,99.11,99.11,0,0,1,99-99m0-14A113,113,0,1,0,226,113,113,113,0,0,0,113,0Z"/><path class="cls-1" d="M139.4,175a12.56,12.56,0,0,1-9-3.77l-27.75-28.24H77.4a13.61,13.61,0,0,1-13.59-13.59V97.5A13.61,13.61,0,0,1,77.4,83.91h24.45l28.59-29.09h0A12.59,12.59,0,0,1,152,63.65v98.7A12.62,12.62,0,0,1,139.4,175Zm-61.59-46h27.81a7,7,0,0,1,5,2.09L138,158.91V67.09L109.78,95.82a7,7,0,0,1-5,2.09h-27Z"/></g></g></g></svg>