<svg version="1.1" id="ico-map" xmlns="http://www.w3.org/2000/svg" x="0" y="0" viewBox="0 0 540 540" xml:space="preserve">
  <style>
    .st0{fill:#fff}
  </style>
  <path class="st0" d="M195.3 376l-60-30V164.7l60 30zM265.4 164.7l-60 30V376l60-30zM302.5 279.1c0 7.5 5.2 18.7 5.8 19.9l26.8 52.4V376l-60-30V164.7l60 30V242c-18.4 2.4-32.6 18.1-32.6 37.1zM404.7 164.7V346l-60 30v-23.8l26.9-52.9.1-.1c.6-1.3 5.8-12.5 5.8-20 0-19-14.3-34.8-32.7-37.2v-47.3l59.9-30z"/>
  <path class="st0" d="M367.4 279.1c0 4-2.9 11.7-4.8 15.7l-17.9 35.3-4.7 9.2-5-9.7-17.8-34.8c-1.9-4-4.8-11.7-4.8-15.6 0-13.5 9.8-24.7 22.6-27 1.6-.3 3.2-.5 4.9-.5 1.6 0 3.2.1 4.7.4 12.9 2.2 22.8 13.5 22.8 27z"/>
</svg>
