<svg xmlns="http://www.w3.org/2000/svg" viewBox="0 0 226 226"><defs><style>.cls-1{fill:#fff;}</style></defs><g id="Layer_2" data-name="Layer 2"><g id="Layer_1-2" data-name="Layer 1"><g id="outline"><path class="cls-1" d="M113,14a99,99,0,1,1-99,99,99.11,99.11,0,0,1,99-99m0-14A113,113,0,1,0,226,113,113,113,0,0,0,113,0Z"/><path class="cls-1" d="M160,120H66a7,7,0,0,1,0-14H160a7,7,0,1,1,0,14Z"/><path class="cls-1" d="M160,158.09H66a7,7,0,0,1,0-14H160a7,7,0,0,1,0,14Z"/><path class="cls-1" d="M160,81.91H66a7,7,0,0,1,0-14H160a7,7,0,0,1,0,14Z"/></g></g></g></svg>