<svg xmlns="http://www.w3.org/2000/svg" viewBox="0 0 226 226"><defs><style>.cls-1{fill:#fff;}</style></defs><g id="Layer_2" data-name="Layer 2"><g id="Layer_1-2" data-name="Layer 1"><g id="outline"><g id="minimize"><path class="cls-1" d="M69.51,110.7a7,7,0,0,1-7-7V69a7,7,0,0,1,7-7h34.23a7,7,0,1,1,0,14H76.51v27.7A7,7,0,0,1,69.51,110.7Z"/><path class="cls-1" d="M156.49,110.57a7,7,0,0,1-7-7V75.87H122.26a7,7,0,1,1,0-14h34.23a7,7,0,0,1,7,7v34.7A7,7,0,0,1,156.49,110.57Z"/><path class="cls-1" d="M103.74,164.13H69.51a7,7,0,0,1-7-7v-34.7a7,7,0,1,1,14,0v27.7h27.23a7,7,0,1,1,0,14Z"/><path class="cls-1" d="M156.49,164H122.26a7,7,0,1,1,0-14h27.23V122.3a7,7,0,0,1,14,0V157A7,7,0,0,1,156.49,164Z"/></g><path class="cls-1" d="M113,14a99,99,0,1,1-99,99,99.11,99.11,0,0,1,99-99m0-14A113,113,0,1,0,226,113,113,113,0,0,0,113,0Z"/></g></g></g></svg>