<svg xmlns="http://www.w3.org/2000/svg" viewBox="0 0 226 226"><defs><style>.cls-1{fill:#fff;}</style></defs><g id="Layer_2" data-name="Layer 2"><g id="Layer_1-2" data-name="Layer 1"><g id="outline"><path class="cls-1" d="M61,102a7,7,0,0,1-7-7V60.34a7,7,0,0,1,7-7H95.23a7,7,0,0,1,0,14H68V95A7,7,0,0,1,61,102Z"/><path class="cls-1" d="M164.9,102a7,7,0,0,1-7-7V67.34H130.67a7,7,0,1,1,0-14H164.9a7,7,0,0,1,7,7V95A7,7,0,0,1,164.9,102Z"/><path class="cls-1" d="M95.23,172.92H61a7,7,0,0,1-7-7V131.23a7,7,0,1,1,14,0v27.69H95.23a7,7,0,0,1,0,14Z"/><path class="cls-1" d="M164.9,172.92H130.67a7,7,0,1,1,0-14H157.9V131.23a7,7,0,0,1,14,0v34.69A7,7,0,0,1,164.9,172.92Z"/><path class="cls-1" d="M113,14a99,99,0,1,1-99,99,99.11,99.11,0,0,1,99-99m0-14A113,113,0,1,0,226,113,113,113,0,0,0,113,0Z"/></g></g></g></svg>