<svg version="1.1" id="ico-racetracks" xmlns="http://www.w3.org/2000/svg" x="0" y="0" viewBox="0 0 540 540" xml:space="preserve">
  <style>
    .st0{fill:#fff}
  </style>
  <path class="st0" d="M192.5 328.1V149c0-2.6-2.1-4.7-4.7-4.7h-34.6c-2.6 0-4.7 2.1-4.7 4.7v179.1h44zM148.6 334.9V382c0 2.6 2.1 4.7 4.7 4.7h34.6c2.6 0 4.7-2.1 4.7-4.7v-47.1h-44zM259.4 281.2V149c0-2.6-2.1-4.7-4.7-4.7h-34.6c-2.6 0-4.7 2.1-4.7 4.7v132.2h44zM215.5 288v94c0 2.6 2.1 4.7 4.7 4.7h34.6c2.6 0 4.7-2.1 4.7-4.7v-94h-44zM325.4 217.9v-69c0-2.6-2.1-4.7-4.7-4.7h-34.6c-2.6 0-4.7 2.1-4.7 4.7v69h44zM281.5 224.7V382c0 2.6 2.1 4.7 4.7 4.7h34.6c2.6 0 4.7-2.1 4.7-4.7V224.7h-44zM391.3 169.5V149c0-2.6-2.1-4.7-4.7-4.7H352c-2.6 0-4.7 2.1-4.7 4.7v20.6h44zM347.4 176.4V382c0 2.6 2.1 4.7 4.7 4.7h34.6c2.6 0 4.7-2.1 4.7-4.7V176.4h-44z"/>
</svg>
