<svg version="1.1" id="ico-tunnel" xmlns="http://www.w3.org/2000/svg" x="0" y="0" viewBox="0 0 540 540" xml:space="preserve">
  <style>
    .st0{fill:#fff}
  </style>
  <path class="st0" d="M340.2 340.8c-3.3 0-6-2.7-6-6v-84.1c0-35.4-28.8-64.2-64.2-64.2s-64.2 28.8-64.2 64.2v84.1c0 3.3-2.7 6-6 6s-6-2.7-6-6v-84.1c0-42 34.2-76.2 76.2-76.2s76.2 34.2 76.2 76.2v84.1c0 3.3-2.7 6-6 6z"/>
  <path class="st0" d="M401.3 369.8c-16.5 0-29.8-13.4-29.8-29.8v-91.8c0-56.4-45.3-102.4-101-102.6-27.2-.1-52.7 10.4-71.9 29.6s-29.8 44.7-29.8 71.8v93c0 16.5-13.4 29.8-29.8 29.8-3.3 0-6-2.7-6-6s2.7-6 6-6c9.8 0 17.8-8 17.8-17.8v-93c0-30.4 11.8-58.9 33.4-80.3 21.5-21.4 50.1-33.2 80.4-33.1 62.3.2 113 51.6 113 114.6V340c0 9.8 8 17.8 17.8 17.8 3.3 0 6 2.7 6 6s-2.8 6-6.1 6z"/>
</svg>
