<?xml version="1.0" encoding="utf-8"?>
<!-- Generator: Adobe Illustrator 24.3.0, SVG Export Plug-In . SVG Version: 6.00 Build 0)  -->
<svg version="1.1" id="Layer_1" xmlns="http://www.w3.org/2000/svg" xmlns:xlink="http://www.w3.org/1999/xlink" x="0px" y="0px"
	 viewBox="0 0 540 540" style="enable-background:new 0 0 540 540;" xml:space="preserve">
<style type="text/css">
	.st0{font-family:'Helvetica-Bold';}
	.st1{font-size:15.1099px;}
</style>
<path d="M362.7,294.6c-1.5,20.9-5.1,41.6-10.6,61.8h54.8c11.9-18.8,19.7-39.8,23.1-61.8H362.7z M279.9,294.6v61.8h48
	c6-20.2,9.8-40.8,11.4-61.8H279.9z M279.9,379.8v51.8c5.3-0.3,10.6-0.9,15.7-1.7l0,0c9.6-15.9,17.9-32.7,24.6-50.1H279.9z
	 M344.8,379.8c-5,14.4-11,28.3-17.9,41.8c23.7-8.9,44.9-23.2,62-41.8H344.8z M191.5,379.8h-40.7c16,17.4,35.7,31.1,57.6,40.1
	C202,406.9,196.3,393.5,191.5,379.8L191.5,379.8z M173.7,294.6h-63.8c3.4,22,11.2,43,23.1,61.8h51.3
	C178.7,336.2,175.2,315.5,173.7,294.6z M197.2,294.6c1.6,20.9,5.5,41.6,11.4,61.8h47.9v-61.8H197.2z M216.7,379.8
	c6.5,17.1,14.3,33.7,23.5,49.4c5.3,1,10.7,1.7,16.1,2.2v-51.8L216.7,379.8z M420.3,209.4h-62.5c3.9,20.3,5.9,41,5.9,61.8H432
	c0-0.4,0-0.8,0-1.3C432,249.2,428.1,228.6,420.3,209.4z M294,109.7c-4.5-0.8-9.2-1.3-14.1-1.3V186h47.9
	C319.9,159.2,308.6,133.5,294,109.7z M202.6,209.4c-4.3,20.3-6.4,41-6.3,61.8h60.3v-61.8H202.6z M119.5,209.4
	c-7.7,19.2-11.6,39.8-11.5,60.5c0,0.4,0,0.8,0,1.3h64.8c0-20.8,2-41.4,6-61.8L119.5,209.4L119.5,209.4z M131.3,185.9h53
	c6.3-23,15-45.4,25.9-66.7C177.4,132.3,149.7,155.8,131.3,185.9L131.3,185.9z M333.6,209.4h-53.6v61.8h60.3
	c0-20.8-2.2-41.5-6.5-61.8H333.6z M242.1,110.3c-14.4,23.7-25.6,49.1-33.5,75.7h47.9v-77.5C251.6,108.9,246.8,109.5,242.1,110.3z
	 M325.4,117.8c11.3,21.7,20.3,44.6,26.8,68.4h56.5C389.5,154.6,360.1,130.5,325.4,117.8z"/>
<text transform="matrix(1 0 0 1 377.3029 512.7232)" class="st0 st1">Created by SC</text>
<text transform="matrix(1 0 0 1 377.3029 527.8345)" class="st0 st1">from the Noun Project</text>
</svg>
