<svg xmlns="http://www.w3.org/2000/svg" viewBox="0 0 226 226"><defs><style>.cls-1{fill:#fff;}</style></defs><g id="Layer_2" data-name="Layer 2"><g id="Layer_1-2" data-name="Layer 1"><g id="outline"><path id="circle" class="cls-1" d="M113,14a99,99,0,1,1-99,99,99.11,99.11,0,0,1,99-99m0-14A113,113,0,1,0,226,113,113,113,0,0,0,113,0Z"/><path id="star-outline" class="cls-1" d="M146.7,165.23a5.46,5.46,0,0,1-3.2-1L113,142.26,82.4,164.19A5.5,5.5,0,0,1,74,158.06l11.42-35.84L55.07,100A5.5,5.5,0,0,1,58.3,90l37.61-.21L107.73,54.1a5.5,5.5,0,0,1,10.44,0L130,89.81,167.6,90a5.5,5.5,0,0,1,3.22,9.93l-30.3,22.27,11.42,35.84a5.49,5.49,0,0,1-5.24,7.17ZM113,130a5.46,5.46,0,0,1,3.2,1l20.27,14.55-7.58-23.77a5.49,5.49,0,0,1,2-6.1l20.1-14.77L126,100.79A5.51,5.51,0,0,1,120.79,97L113,73.33,105.11,97a5.51,5.51,0,0,1-5.19,3.77l-25,.14,20.1,14.77a5.49,5.49,0,0,1,2,6.1l-7.57,23.77L109.74,131A5.49,5.49,0,0,1,113,130Z"/></g></g></g></svg>