<svg xmlns="http://www.w3.org/2000/svg" viewBox="0 0 226 226"><defs><style>.cls-1{fill:#fff;}</style></defs><g id="Layer_2" data-name="Layer 2"><g id="Layer_1-2" data-name="Layer 1"><path id="outline-circle" class="cls-1" d="M113,14a99,99,0,1,1-99,99,99.11,99.11,0,0,1,99-99m0-14A113,113,0,1,0,226,113,113,113,0,0,0,113,0Z"/><g id="outline-off"><path class="cls-1" d="M177.21,161.7a7,7,0,0,1-5-2l-63.2-63.2L96.53,83.91,74.8,62.19a7,7,0,1,1,9.9-9.9l97.46,97.46a7,7,0,0,1-4.95,11.95Z"/><path class="cls-1" d="M96.53,83.91h5.32l28.59-29.09h0A12.59,12.59,0,0,1,152,63.65V139.4l-14-14V67.09L109.78,95.82a6.13,6.13,0,0,1-.72.63Zm-1.62,14H77.81v31h27.81a7,7,0,0,1,5,2.09L138,158.91V141l14,14v7.34a12.59,12.59,0,0,1-21.57,8.83l-27.75-28.24H77.4a13.61,13.61,0,0,1-13.59-13.59V97.5A13.61,13.61,0,0,1,77.4,83.91h3.53Z"/></g></g></g></svg>