<?xml version="1.0" encoding="utf-8"?>
<!-- Generator: Adobe Illustrator 24.3.0, SVG Export Plug-In . SVG Version: 6.00 Build 0)  -->
<svg version="1.1" id="Layer_1" xmlns="http://www.w3.org/2000/svg" xmlns:xlink="http://www.w3.org/1999/xlink" x="0px" y="0px"
	 viewBox="0 0 226 226" style="enable-background:new 0 0 226 226;" xml:space="preserve">
<style type="text/css">
	.st0{fill:#FFFFFF;}
</style>
<g id="Layer_2_1_">
	<g id="Home_icon">
		<polygon class="st0" points="112.6,42.9 183.8,114.3 167.4,114.3 165.2,114.3 165.2,116.5 165.2,173.5 130.1,173.5 130.1,138.4 
			130.1,136.2 127.9,136.2 97.2,136.2 95,136.2 95,138.4 95,173.5 59.9,173.5 59.9,116.5 59.9,114.3 57.7,114.3 41.3,114.3 		"/>
	</g>
	<path class="st0" d="M113.1,14.1c54.7,0,99,44.3,99,99s-44.3,99-99,99s-99-44.3-99-99C14.1,58.5,58.4,14.2,113.1,14.1 M113.1,0.1
		c-62.4,0-113,50.6-113,113s50.6,113,113,113s113-50.6,113-113S175.5,0.1,113.1,0.1z"/>
</g>
</svg>
