<?xml version="1.0" encoding="utf-8"?>
<!-- Generator: Adobe Illustrator 24.3.0, SVG Export Plug-In . SVG Version: 6.00 Build 0)  -->
<svg version="1.1" id="Layer_1" xmlns="http://www.w3.org/2000/svg" xmlns:xlink="http://www.w3.org/1999/xlink" x="0px" y="0px"
	 viewBox="0 0 120 120" style="enable-background:new 0 0 120 120;" xml:space="preserve">
<style type="text/css">
	.st0{font-family:'Helvetica-Bold';}
	.st1{font-size:5px;}
</style>
<path d="M28.5,117.9c2.8,2.8,7.4,2.8,10.3,0c0,0,0,0,0,0l52.7-52.7c2.8-2.8,2.8-7.4,0-10.3c0,0,0,0,0,0L38.8,2.1
	c-2.8-2.8-7.4-2.8-10.3,0s-2.8,7.4,0,10.3L76.1,60l-47.6,47.6C25.7,110.4,25.6,115,28.5,117.9C28.5,117.9,28.5,117.9,28.5,117.9z"/>
<text transform="matrix(1 0 0 1 12 111)" class="st0 st1">Created by olcay kurtulus</text>
<text transform="matrix(1 0 0 1 12 116)" class="st0 st1">from the Noun Project</text>
</svg>
