<?xml version="1.0" encoding="utf-8"?>
<!-- Generator: Adobe Illustrator 24.3.0, SVG Export Plug-In . SVG Version: 6.00 Build 0)  -->
<svg version="1.1"
	 id="Layer_1" xmlns:cc="http://creativecommons.org/ns#" xmlns:dc="http://purl.org/dc/elements/1.1/" xmlns:rdf="http://www.w3.org/1999/02/22-rdf-syntax-ns#" xmlns:svg="http://www.w3.org/2000/svg"
	 xmlns="http://www.w3.org/2000/svg" xmlns:xlink="http://www.w3.org/1999/xlink" x="0px" y="0px" viewBox="0 0 540 540"
	 style="enable-background:new 0 0 540 540;" xml:space="preserve">
<style type="text/css">
	.st0{font-family:'Helvetica-Bold';}
	.st1{font-size:19.1127px;}
</style>
<path d="M232.3,137.3v4.5v59.2h79.8v-63.7H232.3z M241.3,146.3h61.8V192h-61.8V146.3z M130.2,164.3v4.5v59.2H210v-63.8L130.2,164.3
	L130.2,164.3z M139.2,173.3H201V219h-61.8C139.2,219,139.2,173.3,139.2,173.3z M330,199.8v4.5v59.2h79.8v-63.8
	C409.8,199.8,330,199.8,330,199.8z M339,208.8h61.8v45.7H339V208.8z M231.6,249.1v4.5v59.2h79.8v-63.8H231.6z M240.6,258.1h61.8
	v45.7h-61.8V258.1z M130.2,335.8v4.5v59.2H210v-63.8L130.2,335.8L130.2,335.8z M275.7,338.9v4.5v59.2h79.8v-63.7H275.7z
	 M139.2,344.8H201v45.7h-61.8V344.8z M284.7,348h61.8v45.7h-61.8C284.7,393.7,284.7,348,284.7,348z"/>
<text transform="matrix(1 0 0 1 287.978 507.3579)" class="st0 st1">Created by Sergey Patutin</text>
<text transform="matrix(1 0 0 1 287.978 526.4702)" class="st0 st1">from the Noun Project</text>
</svg>
