<svg xmlns="http://www.w3.org/2000/svg" xmlns:xlink="http://www.w3.org/1999/xlink" viewBox="0 0 24 30" version="1.1" x="0px" y="0px"><title>Marker</title><desc>Created with Sketch.</desc><g stroke="none" stroke-width="1" fill="none" fill-rule="evenodd"><path d="M13.0392019,21.7081936 C12.0940626,22.2815258 10.8626021,21.9809256 10.2886866,21.0367943 C6.7619497,15.2353103 5,11.2870891 5,8.99256161 C5,5.13067647 8.13400675,2 12,2 C15.8659932,2 19,5.13067647 19,8.99256161 C19,11.2870898 17.2380492,15.2353128 13.71131,21.0367998 C13.544473,21.3112468 13.3139409,21.5415339 13.0392019,21.7081936 Z M12.0074463,12 C13.666063,12 15.0106376,10.6568542 15.0106376,9 C15.0106376,7.34314575 13.666063,6 12.0074463,6 C10.3488296,6 9.00425503,7.34314575 9.00425503,9 C9.00425503,10.6568542 10.3488296,12 12.0074463,12 Z" fill="#000000" fill-rule="nonzero"/></g><text x="0" y="39" fill="#000000" font-size="5px" font-weight="bold" font-family="'Helvetica Neue', Helvetica, Arial-Unicode, Arial, Sans-serif">Created by Fatkhul Karim</text><text x="0" y="44" fill="#000000" font-size="5px" font-weight="bold" font-family="'Helvetica Neue', Helvetica, Arial-Unicode, Arial, Sans-serif">from the Noun Project</text></svg>